<svg width="22" height="15" viewBox="0 0 22 15" fill="none" xmlns="http://www.w3.org/2000/svg">
<path fill-rule="evenodd" clip-rule="evenodd" d="M10.0352 0.0290982C7.3575 0.306324 4.3982 1.95751 1.71392 4.66653C1.28488 5.0994 0.567601 5.91404 0.406985 6.1475C0.156159 6.51713 0.0285486 6.90136 0.00434611 7.36583C-0.0242568 7.89353 0.0879517 8.35073 0.351979 8.78116C0.475192 8.983 1.17486 9.7952 1.59071 10.2208C3.99555 12.6793 6.56322 14.2697 9.01427 14.8169C9.71394 14.9725 10.0022 14.9993 11.0055 14.9993C11.8372 14.9993 11.9692 14.9944 12.3168 14.9409C13.1397 14.8169 13.9208 14.598 14.7129 14.2722C16.8955 13.3748 19.2519 11.6045 21.1001 9.47422C21.5512 8.95624 21.6678 8.79575 21.7998 8.51367C21.9582 8.18051 22 7.97137 22 7.50446C22 7.16401 21.9912 7.0716 21.9472 6.89894C21.8262 6.43447 21.67 6.18399 21.0671 5.49579C19.2013 3.36553 16.9021 1.64623 14.7041 0.739166C13.7822 0.359805 12.8317 0.114204 11.9274 0.0217957C11.6237 -0.00981777 10.3344 -0.00738359 10.0308 0.0242299M10.44 1.08449C8.07257 1.21824 5.35969 2.61166 2.87344 4.97051C2.15836 5.64898 1.23207 6.67765 1.10665 6.93299C0.921836 7.30749 0.93724 7.78168 1.14406 8.13672C1.25407 8.3264 2.451 9.63714 2.88444 10.0433C5.20568 12.2246 7.59072 13.5378 9.80635 13.8563C10.044 13.8904 10.7458 13.939 11.0011 13.939C11.2563 13.939 11.9582 13.8904 12.1958 13.8563C14.9087 13.4648 18.033 11.4756 20.5412 8.53798C20.9329 8.07837 21.0253 7.88382 21.0253 7.49959C21.0253 7.11537 20.9329 6.91596 20.4994 6.40771C19.2211 4.90486 17.5357 3.47497 15.9604 2.55331C14.374 1.62923 12.9725 1.16474 11.5049 1.07962C11.0407 1.05287 10.9373 1.05287 10.44 1.07962M10.6732 3.09803C9.22989 3.22935 7.94936 4.22883 7.3597 5.68548C7.11327 6.29343 7.01426 6.81626 7.01426 7.49959C7.01426 8.0735 7.08467 8.52338 7.24969 9.0219C7.76014 10.5491 8.99227 11.6458 10.4598 11.8744C10.715 11.9133 11.2805 11.9133 11.5379 11.8744C13.0055 11.6458 14.2398 10.5491 14.7481 9.0219C14.9153 8.52338 14.9835 8.07107 14.9835 7.49959C14.9835 6.66305 14.8009 5.9165 14.4246 5.23073C13.6413 3.7911 12.1782 2.96185 10.6688 3.10047M10.6754 4.18748C9.83496 4.29448 9.08467 4.7711 8.58082 5.51767C7.78654 6.69466 7.78654 8.30939 8.58082 9.48639C8.87125 9.91925 9.3223 10.3205 9.74695 10.5296C10.176 10.7412 10.528 10.8239 10.9989 10.8239C11.1727 10.8239 11.3861 10.8117 11.4697 10.7947C11.8746 10.7193 12.3256 10.5247 12.6578 10.2816C12.9197 10.0894 13.3377 9.62984 13.5093 9.34045C13.7294 8.97082 13.9032 8.47719 13.9736 8.0273C14.0088 7.80601 14.0088 7.20535 13.9736 6.98405C13.8658 6.28126 13.5665 5.64412 13.1221 5.15533C12.7701 4.76867 12.385 4.50604 11.923 4.33581C11.5687 4.20693 11.0407 4.14371 10.6754 4.18991" fill="#C8C8C8"/>
<rect x="3.76562" y="14.0986" width="19.9187" height="1.24153" transform="rotate(-45 3.76562 14.0986)" fill="#C8C8C8"/>
</svg>
